<mxfile host="app.diagrams.net" modified="2024-05-20T12:45:11.943Z" agent="Mozilla/5.0 (Windows NT 10.0; Win64; x64) AppleWebKit/537.36 (KHTML, like Gecko) Chrome/125.0.0.0 Safari/537.36" etag="xEpUU18U-i2K0gNEyiYz" version="24.4.4" type="google">
  <diagram name="Page-1" id="e7e014a7-5840-1c2e-5031-d8a46d1fe8dd">
    <mxGraphModel grid="0" page="0" gridSize="10" guides="1" tooltips="1" connect="1" arrows="1" fold="1" pageScale="1" pageWidth="1169" pageHeight="826" background="none" math="0" shadow="0">
      <root>
        <mxCell id="0" />
        <mxCell id="1" parent="0" />
        <mxCell id="2" value="購入ユーザー" style="swimlane;whiteSpace=wrap;startSize=23;" vertex="1" parent="1">
          <mxGeometry x="161.5" y="39" width="280" height="961" as="geometry" />
        </mxCell>
        <mxCell id="KcW6IALJ6MYgWLLUSF9g-22" style="edgeStyle=orthogonalEdgeStyle;rounded=0;orthogonalLoop=1;jettySize=auto;html=1;entryX=0.5;entryY=0;entryDx=0;entryDy=0;" edge="1" parent="2" source="5" target="KcW6IALJ6MYgWLLUSF9g-21">
          <mxGeometry relative="1" as="geometry" />
        </mxCell>
        <mxCell id="5" value="" style="ellipse;shape=startState;fillColor=#000000;strokeColor=none;" vertex="1" parent="2">
          <mxGeometry x="123.5" y="46" width="30" height="30" as="geometry" />
        </mxCell>
        <mxCell id="KcW6IALJ6MYgWLLUSF9g-21" value="&lt;span style=&quot;font-size: 11px;&quot;&gt;商品詳細画面に&lt;/span&gt;&lt;div&gt;&lt;span style=&quot;font-size: 11px;&quot;&gt;アクセス&lt;/span&gt;&lt;/div&gt;" style="rounded=1;whiteSpace=wrap;html=1;arcSize=40;" vertex="1" parent="2">
          <mxGeometry x="78.5" y="121" width="120" height="40" as="geometry" />
        </mxCell>
        <mxCell id="KcW6IALJ6MYgWLLUSF9g-26" value="&lt;span style=&quot;font-size: 11px;&quot;&gt;カートに入れるボタンを押下&lt;/span&gt;" style="rounded=1;whiteSpace=wrap;html=1;arcSize=40;" vertex="1" parent="2">
          <mxGeometry x="78.5" y="601" width="120" height="40" as="geometry" />
        </mxCell>
        <mxCell id="KcW6IALJ6MYgWLLUSF9g-91" style="edgeStyle=orthogonalEdgeStyle;rounded=0;orthogonalLoop=1;jettySize=auto;html=1;entryX=0.5;entryY=0;entryDx=0;entryDy=0;" edge="1" parent="2" source="KcW6IALJ6MYgWLLUSF9g-55" target="KcW6IALJ6MYgWLLUSF9g-90">
          <mxGeometry relative="1" as="geometry" />
        </mxCell>
        <mxCell id="KcW6IALJ6MYgWLLUSF9g-55" value="&lt;span style=&quot;font-size: 11px;&quot;&gt;商品詳細画面を&lt;/span&gt;&lt;div&gt;&lt;span style=&quot;font-size: 11px;&quot;&gt;確認&lt;/span&gt;&lt;/div&gt;" style="rounded=1;whiteSpace=wrap;html=1;arcSize=40;" vertex="1" parent="2">
          <mxGeometry x="78.5" y="441" width="120" height="40" as="geometry" />
        </mxCell>
        <mxCell id="KcW6IALJ6MYgWLLUSF9g-59" style="edgeStyle=orthogonalEdgeStyle;rounded=0;orthogonalLoop=1;jettySize=auto;html=1;entryX=0.5;entryY=0;entryDx=0;entryDy=0;" edge="1" parent="2" source="KcW6IALJ6MYgWLLUSF9g-56" target="KcW6IALJ6MYgWLLUSF9g-58">
          <mxGeometry relative="1" as="geometry" />
        </mxCell>
        <mxCell id="KcW6IALJ6MYgWLLUSF9g-56" value="&lt;span style=&quot;font-size: 11px;&quot;&gt;商品詳細画面を&lt;/span&gt;&lt;div&gt;&lt;span style=&quot;font-size: 11px;&quot;&gt;確認&lt;/span&gt;&lt;/div&gt;" style="rounded=1;whiteSpace=wrap;html=1;arcSize=40;" vertex="1" parent="2">
          <mxGeometry x="78.5" y="281" width="120" height="40" as="geometry" />
        </mxCell>
        <mxCell id="KcW6IALJ6MYgWLLUSF9g-58" value="" style="ellipse;html=1;shape=endState;fillColor=#000000;strokeColor=default;" vertex="1" parent="2">
          <mxGeometry x="123.5" y="366" width="30" height="30" as="geometry" />
        </mxCell>
        <mxCell id="KcW6IALJ6MYgWLLUSF9g-88" style="edgeStyle=orthogonalEdgeStyle;rounded=0;orthogonalLoop=1;jettySize=auto;html=1;entryX=0.5;entryY=0;entryDx=0;entryDy=0;" edge="1" parent="2" source="KcW6IALJ6MYgWLLUSF9g-81" target="KcW6IALJ6MYgWLLUSF9g-87">
          <mxGeometry relative="1" as="geometry" />
        </mxCell>
        <mxCell id="KcW6IALJ6MYgWLLUSF9g-81" value="&lt;span style=&quot;font-size: 11px;&quot;&gt;登録が完了したことを&lt;/span&gt;&lt;div&gt;&lt;span style=&quot;font-size: 11px;&quot;&gt;確認&lt;/span&gt;&lt;/div&gt;" style="rounded=1;whiteSpace=wrap;html=1;arcSize=40;" vertex="1" parent="2">
          <mxGeometry x="78.5" y="761" width="120" height="40" as="geometry" />
        </mxCell>
        <mxCell id="KcW6IALJ6MYgWLLUSF9g-87" value="" style="ellipse;html=1;shape=endState;fillColor=#000000;strokeColor=default;" vertex="1" parent="2">
          <mxGeometry x="123.5" y="846" width="30" height="30" as="geometry" />
        </mxCell>
        <mxCell id="KcW6IALJ6MYgWLLUSF9g-92" style="edgeStyle=orthogonalEdgeStyle;rounded=0;orthogonalLoop=1;jettySize=auto;html=1;entryX=0.5;entryY=0;entryDx=0;entryDy=0;" edge="1" parent="2" source="KcW6IALJ6MYgWLLUSF9g-90" target="KcW6IALJ6MYgWLLUSF9g-26">
          <mxGeometry relative="1" as="geometry" />
        </mxCell>
        <mxCell id="KcW6IALJ6MYgWLLUSF9g-90" value="&lt;span style=&quot;font-size: 11px;&quot;&gt;カートに入れる個数を選択&lt;/span&gt;" style="rounded=1;whiteSpace=wrap;html=1;arcSize=40;" vertex="1" parent="2">
          <mxGeometry x="78.5" y="521" width="120" height="40" as="geometry" />
        </mxCell>
        <mxCell id="3" value="ECサイト画面" style="swimlane;whiteSpace=wrap;startSize=23;" vertex="1" parent="1">
          <mxGeometry x="441.5" y="39" width="280" height="961" as="geometry" />
        </mxCell>
        <mxCell id="JWLb-32_a0x0ovrGCaO_-7" value="APIリクエストを送信" style="rounded=1;whiteSpace=wrap;html=1;arcSize=40;" vertex="1" parent="3">
          <mxGeometry x="80" y="601" width="120" height="40" as="geometry" />
        </mxCell>
        <mxCell id="KcW6IALJ6MYgWLLUSF9g-79" style="edgeStyle=orthogonalEdgeStyle;rounded=0;orthogonalLoop=1;jettySize=auto;html=1;entryX=0.5;entryY=0;entryDx=0;entryDy=0;" edge="1" parent="3" source="JWLb-32_a0x0ovrGCaO_-18" target="KcW6IALJ6MYgWLLUSF9g-77">
          <mxGeometry relative="1" as="geometry" />
        </mxCell>
        <mxCell id="JWLb-32_a0x0ovrGCaO_-18" value="&lt;font style=&quot;font-size: 11px;&quot;&gt;カートの登録件数表示を更新&lt;/font&gt;" style="rounded=1;whiteSpace=wrap;html=1;arcSize=40;" vertex="1" parent="3">
          <mxGeometry x="79" y="681" width="120" height="40" as="geometry" />
        </mxCell>
        <mxCell id="KcW6IALJ6MYgWLLUSF9g-50" style="edgeStyle=orthogonalEdgeStyle;rounded=0;orthogonalLoop=1;jettySize=auto;html=1;entryX=0.5;entryY=0;entryDx=0;entryDy=0;" edge="1" parent="3" source="KcW6IALJ6MYgWLLUSF9g-31" target="KcW6IALJ6MYgWLLUSF9g-33">
          <mxGeometry relative="1" as="geometry" />
        </mxCell>
        <mxCell id="KcW6IALJ6MYgWLLUSF9g-51" style="edgeStyle=orthogonalEdgeStyle;rounded=0;orthogonalLoop=1;jettySize=auto;html=1;entryX=1;entryY=0.5;entryDx=0;entryDy=0;" edge="1" parent="3" source="KcW6IALJ6MYgWLLUSF9g-31" target="KcW6IALJ6MYgWLLUSF9g-49">
          <mxGeometry relative="1" as="geometry">
            <Array as="points">
              <mxPoint x="219" y="141" />
              <mxPoint x="219" y="381" />
            </Array>
          </mxGeometry>
        </mxCell>
        <mxCell id="KcW6IALJ6MYgWLLUSF9g-31" value="" style="rhombus;whiteSpace=wrap;html=1;" vertex="1" parent="3">
          <mxGeometry x="109.5" y="121" width="59" height="40" as="geometry" />
        </mxCell>
        <mxCell id="KcW6IALJ6MYgWLLUSF9g-61" style="edgeStyle=orthogonalEdgeStyle;rounded=0;orthogonalLoop=1;jettySize=auto;html=1;entryX=0.5;entryY=0;entryDx=0;entryDy=0;" edge="1" parent="3" source="KcW6IALJ6MYgWLLUSF9g-33" target="KcW6IALJ6MYgWLLUSF9g-60">
          <mxGeometry relative="1" as="geometry" />
        </mxCell>
        <mxCell id="KcW6IALJ6MYgWLLUSF9g-33" value="カートに入れる&lt;div&gt;ボタンを非活性化&lt;/div&gt;" style="rounded=1;whiteSpace=wrap;html=1;arcSize=40;" vertex="1" parent="3">
          <mxGeometry x="79" y="201" width="120" height="40" as="geometry" />
        </mxCell>
        <mxCell id="KcW6IALJ6MYgWLLUSF9g-52" style="edgeStyle=orthogonalEdgeStyle;rounded=0;orthogonalLoop=1;jettySize=auto;html=1;entryX=0.5;entryY=0;entryDx=0;entryDy=0;" edge="1" parent="3" source="KcW6IALJ6MYgWLLUSF9g-49" target="KcW6IALJ6MYgWLLUSF9g-23">
          <mxGeometry relative="1" as="geometry" />
        </mxCell>
        <mxCell id="KcW6IALJ6MYgWLLUSF9g-49" value="カートに入れる&lt;div&gt;ボタンを活性化&lt;/div&gt;" style="rounded=1;whiteSpace=wrap;html=1;arcSize=40;" vertex="1" parent="3">
          <mxGeometry x="79" y="361" width="120" height="40" as="geometry" />
        </mxCell>
        <mxCell id="KcW6IALJ6MYgWLLUSF9g-23" value="&lt;span style=&quot;font-size: 11px;&quot;&gt;商品詳細画面を&lt;/span&gt;&lt;div&gt;&lt;span style=&quot;font-size: 11px;&quot;&gt;表示&lt;/span&gt;&lt;/div&gt;" style="rounded=1;whiteSpace=wrap;html=1;arcSize=40;" vertex="1" parent="3">
          <mxGeometry x="79" y="441" width="120" height="40" as="geometry" />
        </mxCell>
        <mxCell id="KcW6IALJ6MYgWLLUSF9g-60" value="&lt;span style=&quot;font-size: 11px;&quot;&gt;商品詳細画面を&lt;/span&gt;&lt;div&gt;&lt;span style=&quot;font-size: 11px;&quot;&gt;表示&lt;/span&gt;&lt;/div&gt;" style="rounded=1;whiteSpace=wrap;html=1;arcSize=40;" vertex="1" parent="3">
          <mxGeometry x="79" y="281" width="120" height="40" as="geometry" />
        </mxCell>
        <mxCell id="KcW6IALJ6MYgWLLUSF9g-65" value="在庫がある場合" style="text;html=1;align=center;verticalAlign=middle;whiteSpace=wrap;rounded=0;" vertex="1" parent="3">
          <mxGeometry x="170" y="111" width="110" height="30" as="geometry" />
        </mxCell>
        <mxCell id="KcW6IALJ6MYgWLLUSF9g-66" value="在庫がない場合" style="text;html=1;align=center;verticalAlign=middle;whiteSpace=wrap;rounded=0;" vertex="1" parent="3">
          <mxGeometry x="18.5" y="161" width="110" height="30" as="geometry" />
        </mxCell>
        <mxCell id="KcW6IALJ6MYgWLLUSF9g-77" value="&lt;font style=&quot;font-size: 11px;&quot;&gt;商品詳細画面に&lt;/font&gt;&lt;div style=&quot;font-size: 11px;&quot;&gt;登録完了の&lt;/div&gt;&lt;div style=&quot;font-size: 11px;&quot;&gt;メッセージを表示&lt;/div&gt;" style="rounded=1;whiteSpace=wrap;html=1;arcSize=40;" vertex="1" parent="3">
          <mxGeometry x="79" y="761" width="120" height="40" as="geometry" />
        </mxCell>
        <mxCell id="KcW6IALJ6MYgWLLUSF9g-5" value="APIサーバー" style="swimlane;whiteSpace=wrap;startSize=23;" vertex="1" parent="1">
          <mxGeometry x="721.5" y="39" width="280" height="961" as="geometry" />
        </mxCell>
        <mxCell id="KcW6IALJ6MYgWLLUSF9g-69" value="カート情報を更新" style="rounded=1;whiteSpace=wrap;html=1;arcSize=40;" vertex="1" parent="KcW6IALJ6MYgWLLUSF9g-5">
          <mxGeometry x="79" y="601" width="120" height="40" as="geometry" />
        </mxCell>
        <mxCell id="KcW6IALJ6MYgWLLUSF9g-75" value="&lt;span style=&quot;font-size: 11px;&quot;&gt;更新完了のレスポンス&lt;/span&gt;&lt;div&gt;&lt;span style=&quot;font-size: 11px;&quot;&gt;を返却&lt;/span&gt;&lt;/div&gt;" style="rounded=1;whiteSpace=wrap;html=1;arcSize=40;" vertex="1" parent="KcW6IALJ6MYgWLLUSF9g-5">
          <mxGeometry x="79" y="681" width="120" height="40" as="geometry" />
        </mxCell>
        <mxCell id="KcW6IALJ6MYgWLLUSF9g-20" value="データベース" style="swimlane;whiteSpace=wrap;startSize=23;" vertex="1" parent="1">
          <mxGeometry x="1001.5" y="39" width="280" height="961" as="geometry" />
        </mxCell>
        <mxCell id="KcW6IALJ6MYgWLLUSF9g-94" style="edgeStyle=orthogonalEdgeStyle;rounded=0;orthogonalLoop=1;jettySize=auto;html=1;entryX=0.5;entryY=0;entryDx=0;entryDy=0;" edge="1" parent="KcW6IALJ6MYgWLLUSF9g-20" source="KcW6IALJ6MYgWLLUSF9g-71" target="KcW6IALJ6MYgWLLUSF9g-93">
          <mxGeometry relative="1" as="geometry" />
        </mxCell>
        <mxCell id="KcW6IALJ6MYgWLLUSF9g-71" value="カート情報を更新" style="rounded=1;whiteSpace=wrap;html=1;arcSize=40;" vertex="1" parent="KcW6IALJ6MYgWLLUSF9g-20">
          <mxGeometry x="79" y="601" width="120" height="40" as="geometry" />
        </mxCell>
        <mxCell id="KcW6IALJ6MYgWLLUSF9g-93" value="&lt;span style=&quot;font-size: 11px;&quot;&gt;更新完了のレスポンス&lt;/span&gt;&lt;div&gt;&lt;span style=&quot;font-size: 11px;&quot;&gt;を返却&lt;/span&gt;&lt;/div&gt;" style="rounded=1;whiteSpace=wrap;html=1;arcSize=40;" vertex="1" parent="KcW6IALJ6MYgWLLUSF9g-20">
          <mxGeometry x="79" y="681" width="120" height="40" as="geometry" />
        </mxCell>
        <mxCell id="KcW6IALJ6MYgWLLUSF9g-62" style="edgeStyle=orthogonalEdgeStyle;rounded=0;orthogonalLoop=1;jettySize=auto;html=1;entryX=1;entryY=0.5;entryDx=0;entryDy=0;" edge="1" parent="1" source="KcW6IALJ6MYgWLLUSF9g-60" target="KcW6IALJ6MYgWLLUSF9g-56">
          <mxGeometry relative="1" as="geometry" />
        </mxCell>
        <mxCell id="KcW6IALJ6MYgWLLUSF9g-63" style="edgeStyle=orthogonalEdgeStyle;rounded=0;orthogonalLoop=1;jettySize=auto;html=1;entryX=1;entryY=0.5;entryDx=0;entryDy=0;" edge="1" parent="1" source="KcW6IALJ6MYgWLLUSF9g-23" target="KcW6IALJ6MYgWLLUSF9g-55">
          <mxGeometry relative="1" as="geometry" />
        </mxCell>
        <mxCell id="KcW6IALJ6MYgWLLUSF9g-68" style="edgeStyle=orthogonalEdgeStyle;rounded=0;orthogonalLoop=1;jettySize=auto;html=1;entryX=0;entryY=0.5;entryDx=0;entryDy=0;" edge="1" parent="1" source="KcW6IALJ6MYgWLLUSF9g-26" target="JWLb-32_a0x0ovrGCaO_-7">
          <mxGeometry relative="1" as="geometry" />
        </mxCell>
        <mxCell id="KcW6IALJ6MYgWLLUSF9g-72" style="edgeStyle=orthogonalEdgeStyle;rounded=0;orthogonalLoop=1;jettySize=auto;html=1;entryX=0;entryY=0.5;entryDx=0;entryDy=0;" edge="1" parent="1" source="JWLb-32_a0x0ovrGCaO_-7" target="KcW6IALJ6MYgWLLUSF9g-69">
          <mxGeometry relative="1" as="geometry" />
        </mxCell>
        <mxCell id="KcW6IALJ6MYgWLLUSF9g-73" style="edgeStyle=orthogonalEdgeStyle;rounded=0;orthogonalLoop=1;jettySize=auto;html=1;entryX=0;entryY=0.5;entryDx=0;entryDy=0;" edge="1" parent="1" source="KcW6IALJ6MYgWLLUSF9g-69" target="KcW6IALJ6MYgWLLUSF9g-71">
          <mxGeometry relative="1" as="geometry" />
        </mxCell>
        <mxCell id="KcW6IALJ6MYgWLLUSF9g-78" style="edgeStyle=orthogonalEdgeStyle;rounded=0;orthogonalLoop=1;jettySize=auto;html=1;entryX=1;entryY=0.5;entryDx=0;entryDy=0;" edge="1" parent="1" source="KcW6IALJ6MYgWLLUSF9g-75" target="JWLb-32_a0x0ovrGCaO_-18">
          <mxGeometry relative="1" as="geometry" />
        </mxCell>
        <mxCell id="KcW6IALJ6MYgWLLUSF9g-82" style="edgeStyle=orthogonalEdgeStyle;rounded=0;orthogonalLoop=1;jettySize=auto;html=1;entryX=1;entryY=0.5;entryDx=0;entryDy=0;" edge="1" parent="1" source="KcW6IALJ6MYgWLLUSF9g-77" target="KcW6IALJ6MYgWLLUSF9g-81">
          <mxGeometry relative="1" as="geometry" />
        </mxCell>
        <mxCell id="KcW6IALJ6MYgWLLUSF9g-89" style="edgeStyle=orthogonalEdgeStyle;rounded=0;orthogonalLoop=1;jettySize=auto;html=1;entryX=0;entryY=0.5;entryDx=0;entryDy=0;" edge="1" parent="1" source="KcW6IALJ6MYgWLLUSF9g-21" target="KcW6IALJ6MYgWLLUSF9g-31">
          <mxGeometry relative="1" as="geometry" />
        </mxCell>
        <mxCell id="KcW6IALJ6MYgWLLUSF9g-95" style="edgeStyle=orthogonalEdgeStyle;rounded=0;orthogonalLoop=1;jettySize=auto;html=1;entryX=1;entryY=0.5;entryDx=0;entryDy=0;" edge="1" parent="1" source="KcW6IALJ6MYgWLLUSF9g-93" target="KcW6IALJ6MYgWLLUSF9g-75">
          <mxGeometry relative="1" as="geometry" />
        </mxCell>
      </root>
    </mxGraphModel>
  </diagram>
</mxfile>
